<svg xmlns="http://www.w3.org/2000/svg" width="13.055" height="13.08" viewBox="0 0 13.055 13.08">
  <g id="emailwhite" transform="translate(-64.929 -41.285)">
    <path id="path2320" d="M65.853,54.327a1.316,1.316,0,0,1-.576-.3,1.141,1.141,0,0,1-.3-.525l-.053-.182V47.858c0-5.11,0-5.476.04-5.62a1.159,1.159,0,0,1,.611-.8c.338-.164-.069-.153,5.885-.153,5.931,0,5.563-.009,5.882.147a1.137,1.137,0,0,1,.6.805c.04.168.042.438.042,5.632,0,5.1,0,5.465-.04,5.609a1.1,1.1,0,0,1-.879.851C76.837,54.377,66.078,54.375,65.853,54.327Zm10.636-6.743V43.8H66.446v7.577H76.488Zm-8.312,2.539c.289-.3.86-.881,1.268-1.3l.742-.753.3.308a1.311,1.311,0,0,0,.684.469,1.513,1.513,0,0,0,.624,0,1.385,1.385,0,0,0,.674-.459l.308-.3,1,1.027c.552.565,1.115,1.144,1.251,1.287l.247.26H67.651Zm-1.02-2.539V45.016l1.264,1.277,1.264,1.277-.681.7c-.374.384-.943.965-1.264,1.291l-.583.593Zm8.224,2.162-1.25-1.279-.866-.885,1.258-1.261,1.258-1.261V47.6c0,1.4,0,2.539-.008,2.539S75.591,49.963,75.381,49.747Zm-4.116-1.612c-.042-.023-.871-.846-1.84-1.831l-1.763-1.79,1.915-.006c1.053,0,2.778,0,3.833,0l1.919.006-1.788,1.8c-1.089,1.1-1.816,1.813-1.861,1.832A.628.628,0,0,1,71.265,48.134Z" transform="translate(0 0)" fill="#fff"/>
  </g>
</svg>
