<svg xmlns="http://www.w3.org/2000/svg" width="42" height="42.08" viewBox="0 0 42 42.08">
  <g id="Email" transform="translate(-64.929 -41.285)">
    <path id="path2320" d="M67.9,83.244a4.234,4.234,0,0,1-1.853-.951A3.671,3.671,0,0,1,65.1,80.6l-.17-.587V62.432c0-16.439.008-17.618.127-18.08a3.73,3.73,0,0,1,1.965-2.575c1.087-.526-.223-.492,18.934-.492,19.082,0,17.9-.03,18.923.474a3.659,3.659,0,0,1,1.917,2.591c.127.542.134,1.409.134,18.118,0,16.419-.008,17.581-.127,18.045a3.521,3.521,0,0,1-2.828,2.737C103.239,83.406,68.625,83.4,67.9,83.244Zm34.217-21.693V49.362H69.811V73.74h32.308ZM75.378,69.72c.931-.959,2.766-2.834,4.078-4.167l2.386-2.423.979.992a4.217,4.217,0,0,0,2.2,1.507,4.868,4.868,0,0,0,2.007-.006A4.456,4.456,0,0,0,89.2,64.147l.991-.965,3.231,3.3c1.777,1.817,3.589,3.681,4.026,4.141l.8.837H73.686ZM72.1,61.551V53.29L76.162,57.4l4.067,4.107-2.19,2.244c-1.2,1.234-3.035,3.1-4.067,4.153L72.1,69.811Zm26.459,6.957c-.678-.7-2.488-2.548-4.022-4.113l-2.787-2.847,4.048-4.055,4.048-4.055v8.169c0,4.493-.011,8.169-.026,8.169S99.233,69.2,98.554,68.508ZM85.313,63.322c-.136-.073-2.8-2.723-5.921-5.889L73.72,51.675l6.16-.019c3.388-.01,8.937-.01,12.333,0l6.174.019-5.751,5.793c-3.5,3.53-5.843,5.832-5.988,5.893A2.02,2.02,0,0,1,85.313,63.322Z" transform="translate(0 0)"/>
  </g>
</svg>
