<svg xmlns="http://www.w3.org/2000/svg" width="39.831" height="38.849" viewBox="0 0 39.831 38.849">
  <path id="github_298822" d="M19.916,0a19.917,19.917,0,0,0-6.3,38.813c1,.182,1.359-.433,1.359-.958,0-.474-.018-2.045-.028-3.707C9.413,35.351,8.243,31.8,8.243,31.8a5.281,5.281,0,0,0-2.211-2.912c-1.81-1.235.137-1.211.137-1.211a4.18,4.18,0,0,1,3.052,2.052,4.239,4.239,0,0,0,5.8,1.653,4.258,4.258,0,0,1,1.264-2.66c-4.421-.5-9.072-2.212-9.072-9.844a7.711,7.711,0,0,1,2.048-5.345,7.174,7.174,0,0,1,.2-5.273s1.67-.535,5.477,2.042a18.853,18.853,0,0,1,9.97,0c3.8-2.579,5.472-2.042,5.472-2.042a7.144,7.144,0,0,1,.2,5.271,7.688,7.688,0,0,1,2.047,5.345c0,7.651-4.658,9.335-9.095,9.829a4.744,4.744,0,0,1,1.352,3.686c0,2.662-.027,4.809-.027,5.465,0,.53.362,1.15,1.371.955A19.919,19.919,0,0,0,19.916,0Z"/>
</svg>
