<svg xmlns="http://www.w3.org/2000/svg" width="15.104" height="14.732" viewBox="0 0 15.104 14.732">
  <path id="github_298822white" d="M7.552,0A7.553,7.553,0,0,0,5.165,14.718c.378.069.515-.164.515-.363,0-.18-.007-.775-.011-1.406-2.1.456-2.544-.891-2.544-.891a2,2,0,0,0-.838-1.1c-.686-.468.052-.459.052-.459a1.585,1.585,0,0,1,1.157.778,1.607,1.607,0,0,0,2.2.627,1.615,1.615,0,0,1,.479-1.009c-1.676-.191-3.44-.839-3.44-3.733a2.924,2.924,0,0,1,.777-2.027,2.72,2.72,0,0,1,.075-2s.633-.2,2.077.774a7.149,7.149,0,0,1,3.781,0c1.441-.978,2.075-.774,2.075-.774a2.709,2.709,0,0,1,.076,2,2.915,2.915,0,0,1,.776,2.027c0,2.9-1.766,3.54-3.449,3.727a1.8,1.8,0,0,1,.513,1.4c0,1.009-.01,1.823-.01,2.072,0,.2.137.436.52.362A7.553,7.553,0,0,0,7.552,0Z" fill="#fff"/>
</svg>
