<svg xmlns="http://www.w3.org/2000/svg" width="13.425" height="13.425" viewBox="0 0 13.425 13.425">
  <g id="iconfinder_51-linkedin_104452white" transform="translate(-3.722 -5.155)">
    <path id="Path_2" data-name="Path 2" d="M10.435,5.155a6.713,6.713,0,1,0,6.712,6.713A6.713,6.713,0,0,0,10.435,5.155Zm3.739,9.973a.547.547,0,0,1-.554.54H7.236a.547.547,0,0,1-.554-.54V8.671a.547.547,0,0,1,.554-.54h6.383a.547.547,0,0,1,.554.54v6.458Z" transform="translate(0)" fill="#fff"/>
    <path id="Path_3" data-name="Path 3" d="M27.36,26.441A1.123,1.123,0,0,0,26.34,27v.011h-.007L26.34,27v-.482H25.209c.015.319,0,3.4,0,3.4H26.34v-1.9a.771.771,0,0,1,.037-.276.621.621,0,0,1,.58-.414c.41,0,.574.312.574.77v1.821h1.131V27.973C28.663,26.927,28.1,26.441,27.36,26.441Z" transform="translate(-15.63 -15.483)" fill="#fff"/>
    <path id="Path_4" data-name="Path 4" d="M19.155,20.712a.59.59,0,1,0-.015,1.177h.007a.59.59,0,1,0,.008-1.177Z" transform="translate(-10.76 -11.316)" fill="#fff"/>
    <rect id="Rectangle_3" data-name="Rectangle 3" width="1.132" height="3.403" transform="translate(7.822 11.037)" fill="#fff"/>
  </g>
</svg>
