<svg xmlns="http://www.w3.org/2000/svg" width="44.658" height="44.66" viewBox="0 0 44.658 44.66">
  <g id="Linkedin" transform="translate(-3.722 -5.155)">
    <path id="Path_2" data-name="Path 2" d="M26.052,5.155A22.33,22.33,0,1,0,48.38,27.485,22.33,22.33,0,0,0,26.052,5.155ZM38.489,38.331a1.82,1.82,0,0,1-1.842,1.8H15.412a1.819,1.819,0,0,1-1.842-1.8V16.85a1.82,1.82,0,0,1,1.842-1.8H36.646a1.821,1.821,0,0,1,1.842,1.8V38.331Z" transform="translate(0 0)"/>
    <path id="Path_3" data-name="Path 3" d="M32.364,26.441a3.735,3.735,0,0,0-3.391,1.869v.037h-.024a.2.2,0,0,0,.024-.037v-1.6H25.209c.05,1.061,0,11.321,0,11.321h3.763V31.7a2.565,2.565,0,0,1,.124-.918,2.065,2.065,0,0,1,1.931-1.378c1.364,0,1.908,1.039,1.908,2.561v6.057H36.7v-6.49C36.7,28.058,34.839,26.441,32.364,26.441Z" transform="translate(-2.002 -1.984)"/>
    <path id="Path_4" data-name="Path 4" d="M20.645,20.712a1.963,1.963,0,1,0-.05,3.915h.024a1.963,1.963,0,1,0,.025-3.915Z" transform="translate(-1.379 -1.45)"/>
    <rect id="Rectangle_3" data-name="Rectangle 3" width="3.764" height="11.321" transform="translate(17.36 24.723)"/>
  </g>
</svg>
