<svg id="viber_x2C__social__x2C__media_x2C__logowhite" xmlns="http://www.w3.org/2000/svg" width="13" height="13" viewBox="0 0 13 13">
  <path id="Path_1" data-name="Path 1" d="M27.334,16H17.666A1.672,1.672,0,0,0,16,17.666v9.668A1.672,1.672,0,0,0,17.666,29h9.668A1.672,1.672,0,0,0,29,27.334V17.666A1.672,1.672,0,0,0,27.334,16Zm-4.911,2.718c.019-.318.318-.2.463-.22a3.756,3.756,0,0,1,3.547,3.643c0,.043,0,.091,0,.139.005.155-.006.311-.217.308-.244,0-.2-.237-.216-.416,0-.015,0-.03,0-.045a3.26,3.26,0,0,0-3.173-3.2C22.662,18.9,22.411,18.932,22.423,18.718Zm3.02,3.332a.167.167,0,0,1-.158.16c-.215.032-.248-.1-.259-.235-.005-.057-.006-.116-.015-.167A1.973,1.973,0,0,0,23.145,19.9c-.182-.04-.464-.012-.417-.287s.3-.172.491-.15a2.486,2.486,0,0,1,2.229,2.344C25.438,21.876,25.454,21.97,25.443,22.05Zm-1.026-.163a.219.219,0,0,1-.1.035.184.184,0,0,1-.167-.066.289.289,0,0,1-.066-.162.888.888,0,0,0-.823-.867c-.152-.024-.3-.072-.23-.272.047-.135.173-.148.3-.151a1.318,1.318,0,0,1,1.179,1.185A.326.326,0,0,1,24.416,21.887Zm2.038,3.456a1.894,1.894,0,0,1-1.561,1.163,2.7,2.7,0,0,1-.417-.115,10.558,10.558,0,0,1-5.126-4.327,11.014,11.014,0,0,1-.718-1.43,1.4,1.4,0,0,1,.969-1.992.757.757,0,0,1,.507,0,4.307,4.307,0,0,1,1.458,1.951.719.719,0,0,1-.422.637.666.666,0,0,0-.349.617,1.134,1.134,0,0,0,.109.4,3.718,3.718,0,0,0,1.967,1.88.615.615,0,0,0,.847-.2c.391-.579.869-.552,1.392-.191.262.18.529.357.778.554C26.23,24.56,26.658,24.782,26.455,25.343Z" transform="translate(-16 -16)" fill="#fff" fill-rule="evenodd"/>
</svg>
